<svg width="18" height="40" viewBox="0 0 18 40" fill="none" xmlns="http://www.w3.org/2000/svg">
<path d="M15.7629 4.90175C15.3862 3.8756 14.939 3.06158 14.4468 2.50621C13.9546 1.95083 13.4271 1.66498 12.8943 1.66498C12.3615 1.66498 11.834 1.95083 11.3418 2.50621C10.8496 3.06158 10.4024 3.8756 10.0258 4.90175L9.24409 7.03038L8.46242 4.90175C7.70163 2.82997 6.66978 1.66605 5.59386 1.66605C4.51795 1.66605 3.48609 2.82997 2.72531 4.90175C1.96452 6.97354 1.53711 9.78348 1.53711 12.7134C1.53711 15.6434 1.96452 18.4533 2.72531 20.5251L3.50697 22.6537L9.24409 38.2771L14.9812 22.6537L15.7629 20.5251C16.1397 19.4994 16.4386 18.2816 16.6425 16.9413C16.8465 15.6009 16.9515 14.1643 16.9515 12.7134C16.9515 11.2626 16.8465 9.82592 16.6425 8.48557C16.4386 7.14522 16.1397 5.92742 15.7629 4.90175Z" stroke="black" stroke-opacity="0.5" stroke-width="2" stroke-linecap="round" stroke-linejoin="round"/>
</svg>
